HIERARCHY
ROOT joint_Root
{
  OFFSET 0 0 0
  CHANNELS 6 Xposition Yposition Zposition Zrotation Xrotation Yrotation
  JOINT Hips
  {
    OFFSET 0 93.9241 -3
    CHANNELS 6 Xposition Yposition Zposition Zrotation Xrotation Yrotation
    JOINT Spine
    {
      OFFSET 15.7357 0 0
      CHANNELS 6 Xposition Yposition Zposition Zrotation Xrotation Yrotation
      JOINT Chest
      {
        OFFSET 8.98455 -0.406207 0
        CHANNELS 6 Xposition Yposition Zposition Zrotation Xrotation Yrotation
        JOINT Neck
        {
          OFFSET 16.3773 0 0
          CHANNELS 6 Xposition Yposition Zposition Zrotation Xrotation Yrotation
          JOINT Head
          {
            OFFSET 6.45672 0 0
            CHANNELS 6 Xposition Yposition Zposition Zrotation Xrotation Yrotation
            End Site
            {
              OFFSET 0 0 0
            }
          }
        }
        JOINT Shoulder_L
        {
          OFFSET 12.9942 -0.242716 4.98039
          CHANNELS 6 Xposition Yposition Zposition Zrotation Xrotation Yrotation
          JOINT UpperArm_L
          {
            OFFSET 5.34809 0 0
            CHANNELS 6 Xposition Yposition Zposition Zrotation Xrotation Yrotation
            JOINT LowerArm_L
            {
              OFFSET 24.3286 1.87007e-05 0
              CHANNELS 6 Xposition Yposition Zposition Zrotation Xrotation Yrotation
              JOINT Hand_L
              {
                OFFSET 22.2916 0 0
                CHANNELS 6 Xposition Yposition Zposition Zrotation Xrotation Yrotation
                End Site
                {
                  OFFSET 0 0 0
                }
              }
            }
          }
        }
        JOINT Shoulder_R
        {
          OFFSET 12.9945 -0.242716 -4.98039
          CHANNELS 6 Xposition Yposition Zposition Zrotation Xrotation Yrotation
          JOINT UpperArm_R
          {
            OFFSET -5.34813 0 0
            CHANNELS 6 Xposition Yposition Zposition Zrotation Xrotation Yrotation
            JOINT LowerArm_R
            {
              OFFSET -24.3289 0.000322201 0
              CHANNELS 6 Xposition Yposition Zposition Zrotation Xrotation Yrotation
              JOINT Hand_R
              {
                OFFSET -22.2915 -0.000108084 0
                CHANNELS 6 Xposition Yposition Zposition Zrotation Xrotation Yrotation
                End Site
                {
                  OFFSET 0 0 0
                }
              }
            }
          }
        }
      }
    }
    JOINT UpperLeg_L
    {
      OFFSET -2.19248 -6.46944 0
      CHANNELS 6 Xposition Yposition Zposition Zrotation Xrotation Yrotation
      JOINT LowerLeg_L
      {
        OFFSET 39.0811 0 -1.23785e-05
        CHANNELS 6 Xposition Yposition Zposition Zrotation Xrotation Yrotation
        JOINT Foot_L
        {
          OFFSET 40.9854 0 -1.26872e-05
          CHANNELS 6 Xposition Yposition Zposition Zrotation Xrotation Yrotation
          JOINT Toes_L
          {
            OFFSET 11.7543 0 0
            CHANNELS 6 Xposition Yposition Zposition Zrotation Xrotation Yrotation
            End Site
            {
              OFFSET 0 0 0
            }
          }
        }
      }
    }
    JOINT UpperLeg_R
    {
      OFFSET -2.19251 6.46944 0
      CHANNELS 6 Xposition Yposition Zposition Zrotation Xrotation Yrotation
      JOINT LowerLeg_R
      {
        OFFSET -39.0811 -0.00228153 -0.0401928
        CHANNELS 6 Xposition Yposition Zposition Zrotation Xrotation Yrotation
        JOINT Foot_R
        {
          OFFSET -40.9854 0 0
          CHANNELS 6 Xposition Yposition Zposition Zrotation Xrotation Yrotation
          JOINT Toes_R
          {
            OFFSET -11.7543 0 0
            CHANNELS 6 Xposition Yposition Zposition Zrotation Xrotation Yrotation
            End Site
            {
              OFFSET 0 0 0
            }
          }
        }
      }
    }
  }
}
MOTION
Frames:	4
Frame Time:	0.0333333
0 0 0 0 0 -0 -147.271 84.2694 -344.241 93.9347 -6.16111 -2.55935 15.7357 5.1072e-06 -5.51765e-07 105.578 88.3245 -106.773 8.98455 -0.406207 -4.3199e-07 -4.52662 1.02726 -2.35075 16.3773 -1.3905e-06 -6.99897e-07 -18.2419 3.48547 -2.11738 6.45672 -1.25837e-06 -1.02172e-07 -3.08479 0.037323 -5.90574 12.9942 -0.242716 4.98039 -90.5893 3.99668 -96.6006 5.34809 -7.22636e-06 -6.2814e-07 -52.2553 26.3451 7.239 24.3286 1.87007e-05 4.90208e-06 15.8036 -1.79266 -96.3028 22.2916 -9.88446e-07 4.63217e-06 14.1589 5.48453 -5.92079 12.9945 -0.242716 -4.98039 89.7883 2.77401 -100.626 -5.34813 -1.25947e-06 -3.79883e-06 -70.7215 19.1129 23.9997 -24.3289 0.000322201 -8.65921e-06 19.7677 2.52299 -83.0098 -22.2915 -0.000108084 -4.47941e-06 44.6061 5.65681 -26.4772 -2.19248 -6.46944 -1.22533e-07 169.64 -2.60854 -13.7989 39.0811 -6.73843e-06 -1.23785e-05 0.266892 -0.196311 47.385 40.9854 -6.48686e-06 -1.26872e-05 9.10928 0.67342 -87.081 11.7543 -2.30145e-07 3.05095e-06 0.0271127 -0.0302183 -16.8734 -2.19251 6.46944 -1.45247e-06 176.278 0.445119 147.28 -39.0811 -0.00228153 -0.0401928 -0.662285 -0.060865 94.0921 -40.9854 7.72618e-06 5.99936e-06 9.95285 -16.5058 -36.35 -11.7543 -5.6619e-06 -5.58687e-06 0.626732 -0.71118 -21.8502 
0 0 0 0 0 -0 -147.786 84.5592 -337.973 91.9151 -2.74239 -4.1189 15.7357 5.1072e-06 -5.51764e-07 62.9916 88.7286 -63.2848 8.98455 -0.406207 -4.3199e-07 -5.50392 -1.11935 -0.640926 16.3773 -1.3905e-06 -6.99897e-07 -18.8595 2.5982 -3.06827 6.45672 -1.25837e-06 -1.02172e-07 -3.41955 0.807071 -5.75986 12.9942 -0.242716 4.98039 -90.3092 3.29828 -99.6576 5.34809 -7.22636e-06 -6.2814e-07 -47.4947 26.212 -11.0764 24.3286 1.87007e-05 4.90208e-06 18.1986 -2.78019 -98.3945 22.2916 -9.88446e-07 4.63217e-06 12.2294 5.47275 -5.46438 12.9945 -0.242716 -4.98039 89.9205 0.621127 -97.6202 -5.34813 -1.25947e-06 -3.79883e-06 -73.1619 20.3955 37.0431 -24.3289 0.000322201 -8.65921e-06 16.0049 3.46318 -78.1069 -22.2915 -0.000108084 -4.47941e-06 44.3304 5.63784 -28.2861 -2.19248 -6.46944 -1.22534e-07 172.931 -2.47387 -7.00658 39.0811 -6.73843e-06 -1.23785e-05 0.174741 -0.160302 41.0719 40.9854 -6.48686e-06 -1.26872e-05 10.3058 3.95008 -88.9548 11.7543 -2.30145e-07 3.05095e-06 0.0962686 -0.108737 -17.6359 -2.19251 6.46944 -1.45247e-06 -179.871 1.03329 139.704 -39.0811 -0.00228153 -0.0401928 -0.641484 -0.0424274 92.6247 -40.9854 7.72618e-06 5.99936e-06 8.86482 -18.9848 -42.8304 -11.7543 -5.6619e-06 -5.58687e-06 0.617862 -0.700166 -21.7715 
0 0 0 0 0 -0 -148.625 86.2501 -331.312 89.716 0.836095 -6.80159 15.7357 5.1072e-06 -5.51765e-07 3.95856 87.9797 -3.14743 8.98455 -0.406207 -4.3199e-07 -7.46849 -4.12914 1.35628 16.3773 -1.3905e-06 -6.99897e-07 -20.3679 1.98967 -3.4508 6.45672 -1.25837e-06 -1.02172e-07 -3.4195 2.62119 -5.85187 12.9942 -0.242716 4.98039 -90.0015 0.011451 -103.096 5.34809 -7.22636e-06 -6.2814e-07 -45.7484 23.8271 -24.6957 24.3286 1.87007e-05 4.90208e-06 12.0254 -2.58419 -101.967 22.2916 -9.88446e-07 4.63217e-06 12.1008 5.43565 -4.14506 12.9945 -0.242716 -4.98039 90.4682 -2.45909 -94.2409 -5.34813 -1.25947e-06 -3.79883e-06 -75.6282 25.4067 47.8408 -24.3289 0.000322201 -8.65921e-06 14.9972 3.5195 -77.0954 -22.2915 -0.000108084 -4.47941e-06 42.4157 5.62345 -29.374 -2.19248 -6.46944 -1.22533e-07 176.799 -2.09641 -1.8333 39.0811 -6.73843e-06 -1.23785e-05 0.228431 -0.319661 32.8722 40.9854 -6.48686e-06 -1.26872e-05 11.1507 7.84608 -80.6799 11.7543 -2.30145e-07 3.05095e-06 0.582599 -0.813423 -25.3519 -2.19251 6.46944 -1.45247e-06 -176.181 0.740922 135.019 -39.0811 -0.00228153 -0.0401928 -0.486454 0.0468497 83.1357 -40.9854 7.72618e-06 5.99936e-06 7.3182 -20.8454 -47.6231 -11.7543 -5.6619e-06 -5.58687e-06 0.566911 -0.637377 -21.3219 
0 0 0 0 0 -0 -149.699 88.633 -324.438 87.2563 4.21681 -9.55132 15.7357 5.1072e-06 -5.51765e-07 -10.7742 85.8978 13.101 8.98455 -0.406207 -4.3199e-07 -9.18264 -8.37372 3.99943 16.3773 -1.3905e-06 -6.99897e-07 -22.0802 2.86228 -3.45535 6.45672 -1.25837e-06 -1.02172e-07 -4.45479 5.14444 -5.56129 12.9942 -0.242716 4.98039 -89.9939 -2.99506 -104.875 5.34809 -7.22636e-06 -6.2814e-07 -42.5373 20.3381 -34.3667 24.3286 1.87007e-05 4.90208e-06 8.73702 -2.69608 -107.013 22.2916 -9.88446e-07 4.63217e-06 12.7356 5.38284 -2.37627 12.9945 -0.242716 -4.98039 91.3398 -6.78513 -93.8001 -5.34813 -1.25947e-06 -3.79883e-06 -79.1248 29.4502 55.6318 -24.3289 0.000322201 -8.65921e-06 14.1776 3.36611 -76.9172 -22.2915 -0.000108084 -4.47941e-06 40.6365 5.63392 -28.6255 -2.19248 -6.46944 -1.22533e-07 -178.566 -1.14928 0.588838 39.0811 -6.73843e-06 -1.23785e-05 0.00933162 0.00902601 25.9977 40.9854 -6.48686e-06 -1.26872e-05 7.0726 11.7122 -62.6347 11.7543 -2.30144e-07 3.05095e-06 3.40352 -1.18893 -42.2668 -2.19251 6.46944 -1.45247e-06 -173.079 -0.381063 134.287 -39.0811 -0.00228153 -0.0401928 -0.272056 0.106355 66.9847 -40.9854 7.72618e-06 5.99936e-06 5.08144 -22.364 -52.1912 -11.7543 -5.6619e-06 -5.58687e-06 0.525572 -0.587143 -20.96 
